HIERARCHY
ROOT Root
{
	OFFSET 0.00 0.00 0.00
	CHANNELS 6 Xposition Yposition Zposition Xrotation Yrotation Zrotation
	JOINT L_Femur
	{
		OFFSET 2.78527 0.00000 0.00000
		CHANNELS 3 Xrotation Yrotation Zrotation
		JOINT L_Tibia
		{
			OFFSET 0.00000 -16.41095 0.00000
			CHANNELS 3 Xrotation Yrotation Zrotation
			JOINT L_Foot
			{
				OFFSET 0.00000 -14.21163 0.00000
				CHANNELS 3 Xrotation Yrotation Zrotation
				JOINT L_Toe
				{
					OFFSET 0.00000 -1.60827 6.00215
					CHANNELS 3 Xrotation Yrotation Zrotation
					End Site
					{
						OFFSET 0.00000 0.00000 2.95275
					}
				}
			}
		}
	}
	JOINT R_Femur
	{
		OFFSET -2.78527 0.00000 0.00000
		CHANNELS 3 Xrotation Yrotation Zrotation
		JOINT R_Tibia
		{
			OFFSET 0.00000 -16.41095 0.00000
			CHANNELS 3 Xrotation Yrotation Zrotation
			JOINT R_Foot
			{
				OFFSET 0.00000 -14.21163 0.00000
				CHANNELS 3 Xrotation Yrotation Zrotation
				JOINT R_Toe
				{
					OFFSET 0.00000 -1.60827 6.00215
					CHANNELS 3 Xrotation Yrotation Zrotation
					End Site
					{
						OFFSET 0.00000 0.00000 2.95275
					}
				}
			}
		}
	}
	JOINT LowerBack
	{
		OFFSET 0.00000 0.03937 0.00000
		CHANNELS 3 Xrotation Yrotation Zrotation
		JOINT Thorax
		{
			OFFSET 0.00000 7.01329 0.00000
			CHANNELS 3 Xrotation Yrotation Zrotation
			JOINT Neck
			{
				OFFSET 0.00000 7.25825 0.00000
				CHANNELS 3 Xrotation Yrotation Zrotation
				JOINT Head
				{
					OFFSET 0.00000 5.63334 0.00000
					CHANNELS 3 Xrotation Yrotation Zrotation
					End Site
					{
						OFFSET 0.00000 4.52755 0.00000
					}
				}
			}
			JOINT L_Collar
			{
				OFFSET 0.00000 7.25825 0.00000
				CHANNELS 3 Xrotation Yrotation Zrotation
				JOINT L_Humerus
				{
					OFFSET 6.91821 -0.00003 0.00000
					CHANNELS 3 Xrotation Yrotation Zrotation
					JOINT L_Elbow
					{
						OFFSET 10.34006 -0.00004 0.00000
						CHANNELS 3 Xrotation Yrotation Zrotation
						JOINT L_Wrist
						{
							OFFSET 7.25554 -0.00003 0.00000
							CHANNELS 3 Xrotation Yrotation Zrotation
							JOINT L_Thumb
							{
								OFFSET 0.00000 0.00000 0.00000
								CHANNELS 3 Xrotation Yrotation Zrotation
								End Site
								{
									OFFSET 0.00000 0.00000 3.93700
								}
							}
							JOINT L_Wrist_End
							{
								OFFSET 3.93700 -0.00001 0.00000
								CHANNELS 3 Xrotation Yrotation Zrotation
							}
						}
					}
				}
			}
			JOINT R_Collar
			{
				OFFSET 0.00000 7.25825 0.00000
				CHANNELS 3 Xrotation Yrotation Zrotation
				JOINT R_Humerus
				{
					OFFSET -6.91821 -0.00003 0.00000
					CHANNELS 3 Xrotation Yrotation Zrotation
					JOINT R_Elbow
					{
						OFFSET -10.34006 -0.00004 0.00000
						CHANNELS 3 Xrotation Yrotation Zrotation
						JOINT R_Wrist
						{
							OFFSET -7.25554 -0.00003 0.00000
							CHANNELS 3 Xrotation Yrotation Zrotation
							JOINT R_Thumb
							{
								OFFSET 0.00000 0.00000 0.00000
								CHANNELS 3 Xrotation Yrotation Zrotation
								End Site
								{
									OFFSET 0.00000 0.00000 3.93700
								}
							}
							JOINT R_Wrist_End
							{
								OFFSET -5.39369 -0.00002 0.00000
								CHANNELS 3 Xrotation Yrotation Zrotation
							}
						}
					}
				}
			}
		}
	}
}
MOTION
Frames: 17
Frame Time: 0.033332
 47.9950 29.7530 -60.1899 155.0765 -46.7017 161.5027 3.3210 18.9301 10.6229 32.1305 -0.0000 0.0000 -8.1127 0.8256 4.7952 -8.4120 0.0000 -0.0000 -49.9573 3.4053 -5.9362 40.4216 -0.0000 0.0000 -8.5932 8.1148 11.0723 -9.9456 0.0000 0.0000 -5.5478 -4.5606 -9.5232 10.1350 -3.2834 14.1094 5.6523 -32.6753 12.8808 16.4001 55.9472 -15.6724 7.3252 20.5855 8.7875 1.2236 -35.1107 -81.6516 -0.0001 -20.5277 -0.0000 -20.9651 1.0489 -6.5442 -0.0000 0.0000 -0.0000 -0.0000 0.0000 -0.0000 11.0738 -10.8868 -6.6496 -4.2895 9.1246 71.5720 -0.0004 63.0347 0.0003 -5.2467 8.9471 -9.6280 -0.0000 0.0000 -0.0000 -0.0000 0.0000 -0.0000
 47.4002 29.9979 -61.0473 153.7236 -45.6508 159.3560 -1.3306 18.7600 10.1144 39.6608 0.0000 -0.0000 -12.5373 -2.7322 4.0570 -8.5555 -0.0000 0.0000 -49.2426 1.5707 -4.6083 40.1661 -0.0000 0.0000 -9.7901 8.9260 11.1067 -9.6381 0.0000 -0.0000 -5.1361 -4.0466 -9.7133 10.7208 -2.3564 16.8394 5.6349 -28.9688 13.3442 19.8984 55.5068 -19.1496 6.4307 19.7010 8.9258 -2.6345 -37.5692 -85.5007 -0.0001 -20.0700 -0.0000 -20.9970 1.3469 -6.2343 -0.0000 0.0000 -0.0000 -0.0000 0.0000 -0.0000 11.0824 -9.9484 -5.9926 -7.7078 8.0453 70.7242 -0.0003 58.4575 0.0002 -0.0350 6.7603 -10.3527 -0.0000 0.0000 -0.0000 -0.0000 0.0000 -0.0000
 46.9008 30.4222 -61.7193 152.4863 -44.1048 157.8606 -6.4943 19.0752 8.5954 45.4033 -0.0000 0.0000 -15.0414 -10.1416 0.5820 -9.0862 0.0000 -0.0000 -47.8521 2.6281 -2.6829 37.7418 -0.0000 0.0000 -9.4678 7.8329 10.1187 -9.4855 -0.0000 -0.0000 -4.6727 -3.3123 -9.7281 10.9848 -1.4393 18.4491 5.2175 -25.9794 13.2505 22.7762 54.5995 -21.1979 6.2095 19.6967 8.7589 -7.1902 -41.7997 -88.0938 -0.0001 -23.4874 -0.0000 -18.2704 2.3030 -6.0321 -0.0000 0.0000 -0.0000 -0.0000 0.0000 -0.0000 10.8449 -8.8113 -6.1080 -10.3089 7.9048 71.1389 -0.0003 56.1302 0.0002 3.4383 5.3986 -10.9402 -0.0000 0.0000 -0.0000 -0.0000 0.0000 -0.0000
 46.3677 30.9059 -62.2615 151.3562 -44.0988 156.8361 -11.0676 19.6015 6.4105 49.2802 -0.0000 0.0000 -17.5294 -12.8927 -2.4656 -9.0221 0.0000 -0.0000 -45.5002 4.3416 -2.0769 34.6723 -0.0000 0.0000 -8.8070 5.9550 9.5157 -9.6150 0.0000 -0.0000 -4.4201 -2.9593 -9.4073 12.1162 -0.9818 18.9612 4.8358 -24.3408 13.7248 25.4299 53.4815 -23.6001 5.8362 19.1171 8.5929 -11.1554 -44.7520 -89.4114 -0.0001 -30.6503 -0.0000 -15.6669 2.7532 -5.2073 -0.0000 0.0000 -0.0000 -0.0000 0.0000 -0.0000 10.9078 -7.9599 -6.5516 -12.3646 8.6613 72.0137 -0.0003 55.6743 0.0002 1.3216 6.3440 -10.8094 -0.0000 0.0000 -0.0000 -0.0000 0.0000 -0.0000
 45.7876 31.3235 -62.7993 150.1176 -44.9476 155.7300 -14.7289 23.6805 5.1818 50.2658 -0.0000 0.0000 -20.5978 -10.9569 -1.9341 -8.9377 -0.0000 -0.0000 -43.0126 5.9841 -2.2516 32.1010 -0.0000 0.0000 -8.2803 4.4909 9.6505 -9.6410 0.0000 -0.0000 -4.3993 -2.8080 -9.3639 13.0219 -0.6409 19.7223 4.7090 -23.3184 14.4558 27.4436 51.6043 -25.8872 5.5268 18.8155 8.4153 -15.0864 -46.5430 -90.6829 -0.0002 -39.0929 -0.0001 -14.9399 2.0158 -4.0904 -0.0000 0.0000 -0.0000 -0.0000 0.0000 -0.0000 10.4183 -7.5055 -7.0350 -12.5477 10.6515 72.0482 -0.0003 56.7297 0.0002 -1.7467 7.6540 -9.9130 -0.0000 0.0000 -0.0000 -0.0000 0.0000 -0.0000
 45.2126 31.6159 -63.3550 148.8267 -46.3995 154.3940 -17.3460 28.3271 4.5044 48.4951 -0.0000 0.0000 -23.0544 -7.7930 -0.3065 -8.8158 0.0000 -0.0000 -40.8639 6.2722 -2.7944 30.9098 -0.0000 0.0000 -8.4390 3.7506 10.2182 -9.5737 -0.0000 0.0000 -4.2662 -2.8506 -9.4924 13.3588 -0.4482 20.6017 4.6354 -22.7496 14.6955 27.9435 50.1680 -26.2074 5.2645 18.4940 8.3573 -18.3117 -46.7031 -91.9606 -0.0002 -47.7874 -0.0001 -18.5639 0.1599 -3.3477 -0.0000 0.0000 -0.0000 -0.0000 0.0000 -0.0000 10.2727 -7.2447 -7.3108 -12.1148 13.4917 71.3089 -0.0003 58.5798 0.0002 -3.1611 8.2243 -9.2892 -0.0000 0.0000 -0.0000 -0.0000 0.0000 -0.0000
 44.6654 31.7791 -63.8859 147.2031 -48.1953 152.6132 -19.6482 30.5158 3.9405 44.8720 -0.0000 0.0000 -24.3069 -8.1347 -0.2065 -8.8128 -0.0000 0.0000 -39.1450 5.6418 -3.4463 30.6574 -0.0000 0.0000 -9.4626 3.2653 10.5626 -9.6431 0.0000 -0.0000 -4.0648 -2.8603 -9.5677 13.3621 -0.2832 21.3519 4.3926 -22.2989 14.9613 27.1126 48.8988 -25.6041 4.8708 18.2673 8.5994 -21.6622 -45.7312 -94.0082 -0.0003 -55.6704 -0.0002 -24.3191 -1.3606 -4.0702 -0.0000 0.0000 -0.0000 -0.0000 0.0000 -0.0000 10.2592 -7.2516 -7.4294 -11.6396 16.0510 70.4729 -0.0004 60.6725 0.0002 -3.0341 8.2550 -9.3819 -0.0000 0.0000 -0.0000 -0.0000 0.0000 -0.0000
 44.0964 31.8225 -64.3762 145.3623 -50.1438 150.5993 -21.6122 30.1658 3.2617 40.2011 -0.0000 0.0000 -25.8499 -9.4314 -1.2815 -9.1213 0.0000 -0.0000 -37.6286 3.3604 -4.3506 30.8683 -0.0000 0.0000 -11.2348 3.4655 10.8488 -9.7911 0.0000 -0.0000 -3.9677 -2.8645 -9.5766 13.1605 -0.1738 22.0533 4.1610 -21.6763 15.0604 25.8657 47.6698 -24.7801 4.6125 17.9040 8.4431 -24.7935 -44.5562 -96.1540 -0.0004 -62.5822 -0.0002 -29.7483 -2.0909 -4.9063 -0.0000 0.0000 -0.0000 -0.0000 0.0000 -0.0000 10.0587 -7.0064 -7.6162 -10.9515 17.2133 69.7768 -0.0004 62.5358 0.0002 -3.3799 8.2591 -9.2206 -0.0000 0.0000 -0.0000 -0.0000 0.0000 -0.0000
 43.5285 31.8050 -64.8214 144.1265 -51.2417 149.2748 -23.5723 29.6701 2.9884 35.2129 -0.0000 0.0000 -26.9656 -8.9384 -0.9681 -9.3953 0.0000 0.0000 -36.4680 0.7686 -4.8812 31.3455 -0.0000 0.0000 -13.3278 3.8655 9.8933 -9.3712 -0.0000 -0.0000 -3.8971 -2.5690 -9.6819 12.7456 0.1393 22.3912 3.8076 -21.3058 14.9784 25.8474 47.2306 -24.4094 4.3733 17.9349 8.0388 -27.7619 -43.6413 -98.4014 -0.0005 -67.9697 -0.0004 -32.1639 -2.6454 -5.4288 -0.0000 0.0000 -0.0000 -0.0000 0.0000 -0.0000 10.0896 -6.4542 -7.7776 -11.0014 17.8912 69.4195 -0.0004 63.1056 0.0003 -3.8746 8.5230 -9.3047 -0.0000 0.0000 -0.0000 -0.0000 0.0000 -0.0000
 42.9892 31.7823 -65.2230 142.5354 -51.7866 147.2848 -26.5372 28.6369 3.5938 30.5837 0.0000 0.0000 -27.9036 -7.0942 0.6613 -9.3591 0.0000 -0.0000 -35.5077 -1.6528 -4.8919 31.0584 -0.0000 0.0000 -14.9351 4.2612 9.4206 -9.2324 0.0000 -0.0000 -3.8933 -2.4683 -10.0118 11.9958 0.3363 23.6269 2.9221 -19.6475 14.1032 25.9358 46.2419 -23.6133 4.6220 18.2844 7.2342 -29.9684 -42.9017 -100.3630 -0.0007 -72.3391 -0.0005 -31.9612 -3.1787 -4.9813 -0.0000 0.0000 -0.0000 -0.0000 0.0000 -0.0000 10.2367 -6.0292 -8.2941 -11.9990 19.0632 69.1947 -0.0004 62.4767 0.0002 -3.9781 8.6890 -9.2915 -0.0000 0.0000 -0.0000 -0.0000 0.0000 -0.0000
 42.4023 31.7570 -65.5501 142.0513 -52.2146 146.6729 -29.2458 28.4618 4.3360 27.9733 0.0000 0.0000 -26.8080 -6.3968 0.5800 -9.0573 -0.0000 -0.0000 -34.3745 -3.0236 -5.2977 31.3605 -0.0000 0.0000 -16.3156 5.0215 9.6311 -9.0304 0.0000 0.0000 -3.7614 -2.2224 -10.1920 11.6655 0.5528 23.6632 2.6869 -18.9581 14.3290 27.3234 45.9779 -24.6576 4.4804 18.2303 6.7898 -30.9350 -42.5118 -101.5197 -0.0008 -75.0254 -0.0006 -31.8765 -3.2693 -4.6432 -0.0000 0.0000 -0.0000 -0.0000 0.0000 -0.0000 9.8742 -5.2693 -8.1744 -12.7363 19.6044 68.9516 -0.0004 61.6572 0.0002 -2.5921 7.9789 -9.4606 -0.0000 0.0000 -0.0000 -0.0000 0.0000 -0.0000
 41.8178 31.7182 -65.8559 141.0413 -52.9737 145.2841 -33.1898 27.1174 5.9036 32.0493 -0.0000 0.0000 -28.0418 -5.0411 2.8666 -9.1124 -0.0000 0.0000 -33.5645 -4.6129 -5.6280 32.2283 -0.0000 0.0000 -17.4676 5.5122 9.9650 -9.1515 -0.0000 0.0000 -3.6243 -2.2267 -10.5094 11.3510 0.5611 24.1652 2.2950 -17.9026 14.2718 27.6800 45.3186 -24.3798 4.3151 18.2567 6.5695 -31.8153 -43.1972 -102.4199 -0.0008 -75.8171 -0.0006 -31.3932 -3.2810 -4.6314 -0.0000 0.0000 -0.0000 -0.0000 0.0000 -0.0000 9.8590 -4.9606 -8.2355 -13.8989 19.6318 69.1362 -0.0004 61.2628 0.0002 -1.3321 7.5695 -9.6020 -0.0000 -0.0000 0.0000 -0.0000 -0.0000 0.0000
 41.1755 31.6670 -66.1158 140.1392 -53.8096 144.0655 -36.4185 27.5629 7.5341 34.2198 0.0000 0.0000 -28.1306 -7.0622 2.7054 -9.2391 0.0000 0.0000 -32.6275 -6.1982 -6.1622 33.1532 -0.0000 0.0000 -18.6102 6.1782 9.9086 -9.3462 -0.0000 0.0000 -3.8120 -2.1985 -10.6969 11.5608 0.5270 24.3030 2.2036 -17.0794 14.2825 27.7279 44.7891 -23.9926 4.2826 18.0459 6.2213 -32.1816 -44.8250 -102.1561 -0.0008 -75.4671 -0.0006 -31.1654 -3.2766 -4.8830 -0.0000 0.0000 -0.0000 -0.0000 0.0000 -0.0000 9.8972 -4.7790 -8.3690 -14.8234 18.9506 69.5557 -0.0004 61.6003 0.0002 -1.9087 7.9035 -9.7893 -0.0000 0.0000 -0.0000 -0.0000 0.0000 -0.0000
 40.4577 31.5675 -66.3452 139.0500 -54.7756 142.6945 -39.2463 28.3668 9.0938 34.5916 -0.0000 0.0000 -26.3208 -8.8965 0.7570 -9.2953 0.0000 0.0000 -31.3083 -7.2864 -6.6923 33.7095 -0.0000 0.0000 -20.1897 6.2597 10.0971 -9.4922 -0.0000 0.0000 -3.9476 -2.3022 -10.7739 11.6015 0.3030 24.2501 1.8473 -16.7651 14.1788 28.3486 44.3082 -23.7605 4.4012 18.0973 6.0666 -31.8235 -46.9257 -101.2641 -0.0008 -74.8322 -0.0006 -29.6033 -2.9621 -5.1109 -0.0000 0.0000 -0.0000 -0.0000 0.0000 -0.0000 9.7387 -5.1968 -8.6147 -15.1405 18.2021 70.1648 -0.0004 62.6018 0.0002 -2.8759 8.0753 -9.5552 -0.0000 0.0000 -0.0000 -0.0000 0.0000 -0.0000
 39.6532 31.3881 -66.5206 138.0221 -55.6646 141.4650 -42.0618 28.2641 10.4722 36.9623 -0.0000 0.0000 -25.6723 -7.7183 1.4487 -8.9275 -0.0000 0.0000 -30.0135 -7.4132 -7.2073 34.7508 -0.0000 0.0000 -21.9385 5.5954 10.5247 -9.6762 0.0000 -0.0000 -4.0319 -2.4672 -10.8693 11.3812 0.0284 24.1719 1.6565 -16.4079 14.1244 28.6526 43.6549 -23.8846 4.4656 18.3835 5.8797 -29.9799 -48.5740 -99.6551 -0.0008 -74.7225 -0.0006 -27.1344 -2.0449 -5.5103 -0.0000 0.0000 -0.0000 -0.0000 0.0000 -0.0000 9.3616 -5.6667 -8.9669 -14.1827 17.5474 70.1042 -0.0004 64.1903 0.0003 -3.2746 8.1851 -9.4412 -0.0000 0.0000 -0.0000 -0.0000 0.0000 -0.0000
 38.7660 31.1542 -66.6771 137.0775 -56.4952 140.2874 -45.1260 28.0743 12.1836 39.8459 -0.0000 0.0000 -26.6881 -7.0635 1.9412 -8.6014 -0.0000 -0.0000 -28.5524 -7.1066 -7.6398 35.9494 -0.0000 0.0000 -23.9145 4.6003 11.0251 -9.9545 -0.0000 0.0000 -4.1980 -2.5823 -11.0802 11.0441 -0.2337 24.0236 1.5684 -16.1813 13.9200 28.2540 43.1449 -23.3037 4.8210 18.8154 5.5547 -27.2710 -49.7301 -97.3189 -0.0008 -74.8799 -0.0006 -26.6239 -1.7773 -5.7637 -0.0000 0.0000 -0.0000 -0.0000 0.0000 -0.0000 9.5552 -6.0961 -8.9156 -12.8193 17.0029 68.9856 -0.0005 65.7066 0.0003 -4.0302 8.4880 -9.4095 -0.0000 0.0000 -0.0000 -0.0000 0.0000 -0.0000
 37.8092 30.8831 -66.7983 135.9684 -57.4167 138.9449 -48.7426 28.1917 14.3801 41.9667 -0.0000 0.0000 -26.2030 -7.9031 0.5813 -8.5488 -0.0000 -0.0000 -26.6728 -7.2385 -8.2011 36.4925 -0.0000 0.0000 -25.8540 3.8955 11.5238 -10.0782 0.0000 -0.0000 -4.3092 -2.6858 -11.2241 10.6547 -0.5283 23.6472 1.3386 -16.1677 13.4534 27.0474 43.0142 -22.1229 5.0933 19.4845 5.3956 -23.7718 -50.3875 -94.3572 -0.0008 -75.4758 -0.0006 -28.4157 -2.1532 -5.9331 -0.0000 0.0000 -0.0000 -0.0000 0.0000 -0.0000 9.7742 -6.7414 -9.0630 -11.2650 16.3776 68.0049 -0.0005 66.4892 0.0003 -4.8388 8.7664 -9.3912 -0.0000 0.0000 -0.0000 -0.0000 0.0000 -0.0000
